<?xml version="1.0" encoding="UTF-8"?>
  <svg width="255px" height="106px" viewBox="0 0 255 106" version="1.1" xmlns="http://www.w3.org/2000/svg" xmlns:xlink="http://www.w3.org/1999/xlink">
      <title>Desktop</title>
      <desc>Created with Sketch.</desc>
      <g id="Page-1" stroke="none" stroke-width="1" fill="none" fill-rule="evenodd">
          <g id="Desktop" transform="translate(-78.000000, -262.000000)">
              <g id="Group" transform="translate(87.000000, 272.000000)">
                  <rect id="Rectangle" fill="#000000" fill-rule="nonzero" x="0" y="0" width="184" height="85" class="logo-rectangle"></rect>
                  <path d="M26.25,59.3 C26.116666,58.3999955 25.816669,57.5750038 25.35,56.825 C24.883331,56.0749963 24.3000035,55.4166695 23.6,54.85 C22.8999965,54.2833305 22.1083377,53.8416682 21.225,53.525 C20.3416622,53.2083318 19.4166715,53.05 18.45,53.05 C16.6833245,53.05 15.1833395,53.3916633 13.95,54.075 C12.7166605,54.7583368 11.7166705,55.6749942 10.95,56.825 C10.1833295,57.9750057 9.62500175,59.283326 9.275,60.75 C8.92499825,62.216674 8.75,63.7333255 8.75,65.3 C8.75,66.8000075 8.92499825,68.2583262 9.275,69.675 C9.62500175,71.0916737 10.1833295,72.366661 10.95,73.5 C11.7166705,74.633339 12.7166605,75.5416632 13.95,76.225 C15.1833395,76.9083367 16.6833245,77.25 18.45,77.25 C20.850012,77.25 22.7249932,76.516674 24.075,75.05 C25.4250067,73.583326 26.2499985,71.650012 26.55,69.25 L34.15,69.25 C33.949999,71.4833445 33.4333375,73.499991 32.6,75.3 C31.7666625,77.100009 30.6666735,78.633327 29.3,79.9 C27.9333265,81.166673 26.3333425,82.13333 24.5,82.8 C22.6666575,83.46667 20.650011,83.8 18.45,83.8 C15.716653,83.8 13.2583442,83.3250048 11.075,82.375 C8.89165575,81.4249952 7.0500075,80.116675 5.55,78.45 C4.0499925,76.783325 2.900004,74.8250112 2.1,72.575 C1.299996,70.3249887 0.9,67.900013 0.9,65.3 C0.9,62.63332 1.299996,60.1583447 2.1,57.875 C2.900004,55.5916553 4.0499925,53.6000085 5.55,51.9 C7.0500075,50.1999915 8.89165575,48.8666715 11.075,47.9 C13.2583442,46.9333285 15.716653,46.45 18.45,46.45 C20.4166765,46.45 22.2749912,46.7333305 24.025,47.3 C25.7750087,47.8666695 27.3416597,48.6916612 28.725,49.775 C30.1083402,50.8583388 31.2499955,52.199992 32.15,53.8 C33.0500045,55.400008 33.6166655,57.233323 33.85,59.3 L26.25,59.3 Z" id="Path" fill="#FFFFFF"></path>
                  <path d="M37.95,70.1 C37.95,68.033323 38.2666635,66.1583417 38.9,64.475 C39.5333365,62.7916582 40.4333275,61.3583392 41.6,60.175 C42.7666725,58.9916607 44.1666585,58.0750032 45.8,57.425 C47.4333415,56.7749967 49.2666565,56.45 51.3,56.45 C53.3333435,56.45 55.1749917,56.7749967 56.825,57.425 C58.4750082,58.0750032 59.8833275,58.9916607 61.05,60.175 C62.2166725,61.3583392 63.1166635,62.7916582 63.75,64.475 C64.3833365,66.1583417 64.7,68.033323 64.7,70.1 C64.7,72.166677 64.3833365,74.033325 63.75,75.7 C63.1166635,77.366675 62.2166725,78.7916607 61.05,79.975 C59.8833275,81.1583392 58.4750082,82.0666635 56.825,82.7 C55.1749917,83.3333365 53.3333435,83.65 51.3,83.65 C49.2666565,83.65 47.4333415,83.3333365 45.8,82.7 C44.1666585,82.0666635 42.7666725,81.1583392 41.6,79.975 C40.4333275,78.7916607 39.5333365,77.366675 38.9,75.7 C38.2666635,74.033325 37.95,72.166677 37.95,70.1 Z" id="Path" fill="#FFFFFF"></path>
                  <path d="M45.05,70.1 C45.05,71.1333385 45.149999,72.1416618 45.35,73.125 C45.550001,74.1083383 45.8916643,74.9916628 46.375,75.775 C46.8583358,76.5583373 47.499996,77.183331 48.3,77.65 C49.100004,78.116669 50.099994,78.35 51.3,78.35 C52.500006,78.35 53.5083293,78.116669 54.325,77.65 C55.1416708,77.183331 55.7916643,76.5583373 56.275,75.775 C56.7583358,74.9916628 57.099999,74.1083383 57.3,73.125 C57.500001,72.1416618 57.6,71.1333385 57.6,70.1 C57.6,69.0666615 57.500001,68.050005 57.3,67.05 C57.099999,66.049995 56.7583358,65.1666705 56.275,64.4 C55.7916643,63.6333295 55.1416708,63.0083358 54.325,62.525 C53.5083293,62.0416643 52.500006,61.8 51.3,61.8 C50.099994,61.8 49.100004,62.0416643 48.3,62.525 C47.499996,63.0083358 46.8583358,63.6333295 46.375,64.4 C45.8916643,65.1666705 45.550001,66.049995 45.35,67.05 C45.149999,68.050005 45.05,69.0666615 45.05,70.1 Z" id="Path" fill="#000000"></path>
                  <path d="M69.3,57.15 L76.05,57.15 L76.05,60.75 L76.2,60.75 C77.1000045,59.2499925 78.2666595,58.1583368 79.7,57.475 C81.1333405,56.7916633 82.5999925,56.45 84.1,56.45 C86.0000095,56.45 87.5583273,56.7083308 88.775,57.225 C89.9916728,57.7416693 90.9499965,58.4583288 91.65,59.375 C92.3500035,60.2916713 92.8416653,61.4083268 93.125,62.725 C93.4083347,64.0416733 93.55,65.499992 93.55,67.1 L93.55,83 L86.45,83 L86.45,68.4 C86.45,66.266656 86.11667,64.6750053 85.45,63.625 C84.78333,62.5749948 83.6000085,62.05 81.9,62.05 C79.966657,62.05 78.566671,62.6249943 77.7,63.775 C76.833329,64.9250058 76.4,66.8166535 76.4,69.45 L76.4,83 L69.3,83 L69.3,57.15 Z" id="Path" fill="#FFFFFF"></path>
                  <path d="M98.95,57.15 L105.7,57.15 L105.7,60.75 L105.85,60.75 C106.750005,59.2499925 107.91666,58.1583368 109.35,57.475 C110.783341,56.7916633 112.249993,56.45 113.75,56.45 C115.65001,56.45 117.208327,56.7083308 118.425,57.225 C119.641673,57.7416693 120.599997,58.4583288 121.3,59.375 C122.000004,60.2916713 122.491665,61.4083268 122.775,62.725 C123.058335,64.0416733 123.2,65.499992 123.2,67.1 L123.2,83 L116.1,83 L116.1,68.4 C116.1,66.266656 115.76667,64.6750053 115.1,63.625 C114.43333,62.5749948 113.250009,62.05 111.55,62.05 C109.616657,62.05 108.216671,62.6249943 107.35,63.775 C106.483329,64.9250058 106.05,66.8166535 106.05,69.45 L106.05,83 L98.95,83 L98.95,57.15 Z" id="Path" fill="#FFFFFF"></path>
                  <path d="M134.45,71.8 C134.55,74.1000115 135.133328,75.7666615 136.2,76.8 C137.266672,77.8333385 138.79999,78.35 140.8,78.35 C142.23334,78.35 143.466661,77.9916702 144.5,77.275 C145.533338,76.5583297 146.166665,75.800004 146.4,75 L152.65,75 C151.649995,78.1000155 150.116677,80.31666 148.05,81.65 C145.983323,82.98334 143.483348,83.65 140.55,83.65 C138.516657,83.65 136.683341,83.3250032 135.05,82.675 C133.416658,82.0249967 132.033339,81.100006 130.9,79.9 C129.766661,78.699994 128.89167,77.266675 128.275,75.6 C127.65833,73.933325 127.35,72.10001 127.35,70.1 C127.35,68.166657 127.666663,66.366675 128.3,64.7 C128.933336,63.033325 129.833327,61.5916727 131,60.375 C132.166673,59.1583272 133.558325,58.2000035 135.175,57.5 C136.791675,56.7999965 138.583324,56.45 140.55,56.45 C142.750011,56.45 144.666658,56.8749957 146.3,57.725 C147.933341,58.5750042 149.274995,59.7166595 150.325,61.15 C151.375005,62.5833405 152.133331,64.2166575 152.6,66.05 C153.066669,67.8833425 153.233334,69.79999 153.1,71.8 L134.45,71.8 Z" id="Path" fill="#FFFFFF"></path>
                  <path d="M146,67.3 C145.666665,65.499991 145.075004,64.133338 144.225,63.2 C143.374996,62.266662 142.083342,61.8 140.35,61.8 C139.216661,61.8 138.275004,61.9916647 137.525,62.375 C136.774996,62.7583352 136.175002,63.2333305 135.725,63.8 C135.274998,64.3666695 134.958334,64.9666635 134.775,65.6 C134.591666,66.2333365 134.483334,66.7999975 134.45,67.3 L146,67.3 Z" id="Path" fill="#000000"></path>
                  <path d="M174.9,66.25 C174.433331,63.2833185 172.683348,61.8 169.65,61.8 C168.516661,61.8 167.56667,62.0583307 166.8,62.575 C166.03333,63.0916692 165.408336,63.7583292 164.925,64.575 C164.441664,65.3916707 164.100001,66.2916617 163.9,67.275 C163.699999,68.2583382 163.6,69.2333285 163.6,70.2 C163.6,71.133338 163.699999,72.0833285 163.9,73.05 C164.100001,74.0166715 164.424998,74.8916627 164.875,75.675 C165.325002,76.4583372 165.933329,77.0999975 166.7,77.6 C167.46667,78.1000025 168.399994,78.35 169.5,78.35 C171.200008,78.35 172.508329,77.8750047 173.425,76.925 C174.341671,75.9749952 174.916665,74.700008 175.15,73.1 L182,73.1 C181.533331,76.5333505 180.200011,79.149991 178,80.95 C175.799989,82.750009 172.983351,83.65 169.55,83.65 C167.616657,83.65 165.841675,83.3250032 164.225,82.675 C162.608325,82.0249967 161.233339,81.1166725 160.1,79.95 C158.966661,78.7833275 158.083337,77.3916747 157.45,75.775 C156.816663,74.1583252 156.5,72.383343 156.5,70.45 C156.5,68.44999 156.791664,66.5916752 157.375,64.875 C157.958336,63.1583247 158.816661,61.6750062 159.95,60.425 C161.083339,59.1749937 162.466658,58.2000035 164.1,57.5 C165.733341,56.7999965 167.599989,56.45 169.7,56.45 C171.233341,56.45 172.708326,56.649998 174.125,57.05 C175.541674,57.450002 176.808328,58.0583292 177.925,58.875 C179.041672,59.6916707 179.949996,60.7083272 180.65,61.925 C181.350003,63.1416727 181.749999,64.583325 181.85,66.25 L174.9,66.25 Z" id="Path" fill="#FFFFFF"></path>
                  <path d="M195,57.15 L200.2,57.15 L200.2,61.9 L195,61.9 L195,74.7 C195,75.900006 195.199998,76.699998 195.6,77.1 C196.000002,77.500002 196.799994,77.7 198,77.7 C198.400002,77.7 198.783332,77.6833335 199.15,77.65 C199.516669,77.6166665 199.866665,77.566667 200.2,77.5 L200.2,83 C199.599997,83.1000005 198.933337,83.1666665 198.2,83.2 C197.466663,83.2333335 196.750004,83.25 196.05,83.25 C194.949995,83.25 193.908338,83.1750008 192.925,83.025 C191.941662,82.8749993 191.075004,82.5833355 190.325,82.15 C189.574996,81.7166645 188.983336,81.100004 188.55,80.3 C188.116665,79.499996 187.9,78.4500065 187.9,77.15 L187.9,61.9 L183.6,61.9 L183.6,57.15 L187.9,57.15 L187.9,49.4 L195,49.4 L195,57.15 Z" id="Path" fill="#000000"></path>
                  <polygon id="Path" fill="#000000" points="203.8 47.3 210.9 47.3 210.9 83 203.8 83"></polygon>
                  <path d="M229.25,86.2 C228.483329,88.3000105 227.416673,89.7999955 226.05,90.7 C224.683326,91.6000045 222.783345,92.05 220.35,92.05 C219.616663,92.05 218.89167,92.0250003 218.175,91.975 C217.45833,91.9249998 216.733337,91.866667 216,91.8 L216,85.95 C216.66667,86.016667 217.349996,86.083333 218.05,86.15 C218.750003,86.216667 219.449996,86.2333335 220.15,86.2 C221.083338,86.0999995 221.774998,85.7333365 222.225,85.1 C222.675002,84.4666635 222.9,83.7666705 222.9,83 C222.9,82.4333305 222.800001,81.9000025 222.6,81.4 L213.55,57.15 L221.1,57.15 L226.95,74.85 L227.05,74.85 L232.7,57.15 L240.05,57.15 L229.25,86.2 Z" id="Path" fill="#000000"></path>
              </g>
          </g>
      </g>
  </svg>
